<svg xmlns="http://www.w3.org/2000/svg" xmlns:xlink="http://www.w3.org/1999/xlink" version="1.1" id="Calque_1" x="0px" y="0px" width="100px" height="100px" viewBox="0 0 100 100" enable-background="new 0 0 100 100" xml:space="preserve">
<g>
	<path d="M7.239,80.486c0,3.455,2.774,6.25,6.203,6.25h72.635c3.428,0,6.202-2.795,6.202-6.25H7.239z"/>
	<path d="M38.939,30.167l0.033-0.051c0,0,7.251-2.246,4.445-10.664c-2.02-6.061-0.338-9.013-0.264-9.134l-0.033,0.051   c0,0-7.252,2.245-4.445,10.663C40.695,27.094,39.012,30.045,38.939,30.167z"/>
	<path d="M47.652,30.167l0.033-0.051c0,0,7.251-2.246,4.445-10.664c-2.02-6.061-0.338-9.013-0.264-9.134l-0.033,0.051   c0,0-7.252,2.245-4.445,10.663C49.408,27.094,47.725,30.045,47.652,30.167z"/>
	<path d="M56.365,30.167l0.032-0.051c0,0,7.251-2.246,4.445-10.664c-2.02-6.061-0.338-9.013-0.264-9.134l-0.033,0.051   c0,0-7.252,2.245-4.445,10.663C58.121,27.094,56.438,30.045,56.365,30.167z"/>
	<path d="M28.299,35.251c-1.267,0-2.292,1.025-2.292,2.292v28.969c0,5.527,4.473,10,10,10H63.51c5.527,0,10-4.473,10-10V40.261   h5.164c2.068,0,3.751,1.683,3.751,3.751v10c0,2.068-1.683,3.751-3.749,3.751l-0.357-0.014c-1.322,0-2.391,1.069-2.391,2.391   l0.008,2.622l2.738,0.001c4.825,0,8.751-3.926,8.751-8.751v-10c0-4.825-3.926-8.751-8.751-8.751L28.299,35.251z M63.51,41.383   c0-0.69,0.559-1.25,1.25-1.25c0.689,0,1.25,0.56,1.25,1.25v23.88c0,0.69-0.561,1.25-1.25,1.25c-0.691,0-1.25-0.56-1.25-1.25V41.383   z"/>
</g>
</svg>